<?xml version="1.0" encoding="utf-8"?>
<!-- Generator: Adobe Illustrator 26.3.1, SVG Export Plug-In . SVG Version: 6.00 Build 0)  -->
<svg version="1.1" id="Layer_1" xmlns="http://www.w3.org/2000/svg" xmlns:xlink="http://www.w3.org/1999/xlink" x="0px" y="0px"
	 viewBox="0 0 1920 1920" style="enable-background:new 0 0 1920 1920;" xml:space="preserve">
<style type="text/css">
	.st0{fill:#FFFFFF;}
</style>
<g>
	<g>
		<g>
			<g>
				<path class="st0" d="M1329.69,654.38h117.96c-46.03,220.09-225.84,368.25-466.07,368.25c-281.94,0-509.22-218.65-509.22-507.78
					S699.64,8.5,981.58,8.5c240.23,0,420.04,146.72,466.07,366.81h-117.96c-40.28-159.67-169.74-260.36-348.11-260.36
					c-221.52,0-394.14,171.18-394.14,399.9s172.62,401.33,394.14,401.33C1159.95,916.18,1289.41,812.61,1329.69,654.38z"/>
			</g>
		</g>
		<g>
			<g>
				<g>
					<path class="st0" d="M1019.91,1377.83v516.41h-92.06l-8.63-199.95c-70.48,130.9-195.63,217.21-374,217.21
						c-289.14,0-506.35-224.4-506.35-499.15c0-296.33,228.72-513.54,513.54-513.54c212.9,0,409.97,122.27,464.63,340.92H894.76
						c-48.91-158.23-197.07-234.47-340.92-234.47c-225.84,0-399.9,169.74-399.9,407.09c0,212.9,162.55,392.7,391.27,392.7
						c199.95,0,326.53-139.53,353.87-322.22H535.14v-105.01H1019.91z"/>
				</g>
			</g>
			<g>
				<g>
					<path class="st0" d="M1881.14,916.07v978.16h-94.94l-625.74-771.02v771.02h-113.64V916.07h92.06l628.61,781.09V916.07H1881.14z
						"/>
				</g>
			</g>
		</g>
	</g>
</g>
</svg>
