<?xml version="1.0" encoding="utf-8"?>
<!-- Generator: Adobe Illustrator 26.3.1, SVG Export Plug-In . SVG Version: 6.00 Build 0)  -->
<svg version="1.1" id="Layer_1" xmlns="http://www.w3.org/2000/svg" xmlns:xlink="http://www.w3.org/1999/xlink" x="0px" y="0px"
	 viewBox="0 0 924 119" style="enable-background:new 0 0 924 119;" xml:space="preserve">
<g>
	<path d="M48.72,35.54h9.04c-2.61,13.28-12.95,22.07-26.8,22.07C15,57.61,2.21,45.39,2.21,28.86C2.21,12.24,15,0.19,30.96,0.19
		c13.85,0,24.19,8.63,26.8,21.91h-9.04c-2.2-8.55-8.55-13.77-17.76-13.77c-11.32,0-19.87,8.55-19.87,20.53
		c0,11.89,8.55,20.53,19.87,20.53C40.17,49.38,46.52,44.17,48.72,35.54z"/>
	<path d="M115.76,1.16v55.39h-8.72V33.42H77.96v23.13h-8.8V1.16h8.8v24.11h29.08V1.16H115.76z"/>
	<path d="M150.54,37.82h-12.79v18.73h-8.8V1.16h22.24c12.38,0,21.34,7.17,21.34,18.33c0,8.23-4.89,14.34-12.38,16.94l15.48,20.12
		h-10.75L150.54,37.82z M137.75,29.75h13.11c7.41,0,13.03-3.91,13.03-10.26c0-6.35-5.62-10.26-13.03-10.26h-13.11V29.75z"/>
	<path d="M192.49,1.16v55.39h-8.8V1.16H192.49z"/>
	<path d="M248.45,17.21h-8.63c-0.98-5.86-4.97-9.45-13.03-9.45c-7.09,0-11.73,3.01-11.73,8.39c0,4.4,3.26,6.68,9.2,7.82l7.74,1.55
		c10.34,2.04,16.29,6.44,16.29,14.99c0,10.34-8.47,17.02-21.18,17.02c-13.52,0-22.56-7.09-23.62-18.98h8.71
		c1.06,7,6.6,11.16,15.39,11.16c7.25,0,11.73-3.01,11.73-8.15c0-3.34-2.2-6.35-8.72-7.49l-9.69-1.87
		c-10.34-1.95-15.15-7.25-15.15-15.39c0-10.1,8.15-16.62,20.44-16.62C236.39,0.19,247.15,4.42,248.45,17.21z"/>
	<path d="M300.91,9.23h-19.63v47.32h-8.72V9.23h-19.63V1.16h47.98V9.23z"/>
	<path d="M317.77,1.16v55.39h-8.8V1.16H317.77z"/>
	<path d="M368.43,43.27h-27.04l-5.7,13.28h-9.37l24.52-55.39h8.23l24.44,55.39h-9.37L368.43,43.27z M365.09,35.46l-10.18-23.87
		l-10.26,23.87H365.09z"/>
	<path d="M440.44,1.16v55.39h-7l-32.66-39.1v39.1h-8.8V1.16h6.76l32.99,39.91V1.16H440.44z"/>
	<path d="M527.76,26.5v30.06h-6.92l-0.65-9.53c-3.91,6.43-10.51,10.51-19.96,10.51c-16.53,0-28.67-12.71-28.67-28.1
		c0-17.19,12.95-29.24,29.08-29.24c11.97,0,23.38,6.6,26.63,19.79h-9.37c-2.85-8.55-10.59-11.65-17.1-11.65
		c-11.65,0-20.36,8.55-20.36,21.1c0,10.67,7.98,19.87,19.79,19.87c9.77,0,16.05-6.19,18-14.66h-18.65V26.5H527.76z"/>
	<path d="M596.26,28.86c0,15.96-12.87,28.67-28.83,28.67c-15.96,0-28.83-12.71-28.83-28.67c0-15.96,12.87-28.67,28.83-28.67
		C583.39,0.19,596.26,12.89,596.26,28.86z M587.39,28.86c0-11.32-8.63-20.53-19.96-20.53c-11.32,0-19.96,9.2-19.96,20.53
		s8.63,20.44,19.96,20.44C578.75,49.3,587.39,40.18,587.39,28.86z"/>
	<path d="M616.39,9.23v15.88h27.69v8.06h-27.69v15.23h30.95v8.15h-39.75V1.16h39.75v8.06H616.39z"/>
	<path d="M699.71,17.21h-8.63c-0.98-5.86-4.97-9.45-13.03-9.45c-7.09,0-11.73,3.01-11.73,8.39c0,4.4,3.26,6.68,9.2,7.82l7.74,1.55
		c10.34,2.04,16.29,6.44,16.29,14.99c0,10.34-8.47,17.02-21.18,17.02c-13.52,0-22.56-7.09-23.62-18.98h8.71
		c1.06,7,6.6,11.16,15.39,11.16c7.25,0,11.73-3.01,11.73-8.15c0-3.34-2.2-6.35-8.72-7.49l-9.69-1.87
		c-10.34-1.95-15.15-7.25-15.15-15.39c0-10.1,8.15-16.62,20.44-16.62C687.66,0.19,698.41,4.42,699.71,17.21z"/>
	<path d="M754.62,35.54h9.04c-2.61,13.28-12.95,22.07-26.8,22.07c-15.96,0-28.75-12.22-28.75-28.75c0-16.62,12.79-28.67,28.75-28.67
		c13.85,0,24.19,8.63,26.8,21.91h-9.04c-2.2-8.55-8.55-13.77-17.76-13.77c-11.32,0-19.87,8.55-19.87,20.53
		c0,11.89,8.55,20.53,19.87,20.53C746.06,49.38,752.42,44.17,754.62,35.54z"/>
	<path d="M821.65,1.16v55.39h-8.71V33.42h-29.08v23.13h-8.8V1.16h8.8v24.11h29.08V1.16H821.65z"/>
	<path d="M843.65,9.23v15.88h27.69v8.06h-27.69v15.23h30.95v8.15h-39.75V1.16h39.75v8.06H843.65z"/>
	<path d="M923.8,48.41v8.15h-38.36V1.16h8.8v47.24H923.8z"/>
	<path d="M52.47,62.26v55.39h-7L12.8,78.55v39.1H4V62.26h6.76l32.99,39.91V62.26H52.47z"/>
	<path d="M115.51,89.62c0,16.21-12.38,28.02-29.4,28.02H65.66V62.26h20.44C103.13,62.26,115.51,73.82,115.51,89.62z M106.63,89.62
		c0-11-8.88-19.3-20.53-19.3H74.46v39.18h11.65C97.76,109.5,106.63,101.03,106.63,89.62z"/>
	<path d="M161.62,97.2c0,13.85-8.23,21.42-21.1,21.42c-11.24,0-19.47-6.68-20.36-18.16h8.88c0.65,6.6,5.54,10.02,12.05,10.02
		c6.76,0,11.65-4.81,11.65-13.52v-34.7h8.88V97.2z"/>
	<path d="M229.06,89.95c0,15.96-12.87,28.67-28.83,28.67c-15.96,0-28.83-12.71-28.83-28.67c0-15.96,12.87-28.67,28.83-28.67
		C216.19,61.28,229.06,73.99,229.06,89.95z M220.18,89.95c0-11.32-8.63-20.53-19.96-20.53c-11.32,0-19.96,9.2-19.96,20.53
		s8.63,20.44,19.96,20.44C211.55,110.39,220.18,101.27,220.18,89.95z"/>
	<path d="M296.26,117.64h-8.72V81.56l-16.45,26.72h-5.46l-16.62-26.96l0.16,36.33h-8.8V62.26h6.35l21.58,35.19l21.58-35.19h6.35
		V117.64z"/>
	<path d="M365.42,89.95c0,15.96-12.87,28.67-28.83,28.67c-15.96,0-28.83-12.71-28.83-28.67c0-15.96,12.87-28.67,28.83-28.67
		C352.55,61.28,365.42,73.99,365.42,89.95z M356.54,89.95c0-11.32-8.63-20.53-19.96-20.53c-11.32,0-19.96,9.2-19.96,20.53
		s8.63,20.44,19.96,20.44C347.91,110.39,356.54,101.27,356.54,89.95z"/>
	<path d="M423.83,93.29c0,15.56-9.69,25.33-24.27,25.33c-14.5,0-24.27-9.77-24.27-25.33V62.26h8.8v31.03
		c0,10.18,6.19,17.19,15.48,17.19s15.56-7,15.56-17.19V62.26h8.72V93.29z"/>
	<path d="M491.27,89.95c0,15.96-12.87,28.67-28.83,28.67c-15.96,0-28.83-12.71-28.83-28.67c0-15.96,12.87-28.67,28.83-28.67
		C478.4,61.28,491.27,73.99,491.27,89.95z M482.39,89.95c0-11.32-8.63-20.53-19.96-20.53c-11.32,0-19.96,9.2-19.96,20.53
		s8.63,20.44,19.96,20.44C473.76,110.39,482.39,101.27,482.39,89.95z"/>
</g>
</svg>
